<svg width="72" height="72" viewBox="0 0 72 72" fill="none" xmlns="http://www.w3.org/2000/svg">
<path d="M0 0H72V72H0V0Z" fill="#CFF2ED"/>
<path d="M41.7292 37.5301L37.2732 40.5003V45.0786L45.1629 39.8192L41.7292 37.5301ZM39.4337 35.9997L36 33.7106L32.5664 35.9997L36 38.2889L39.4337 35.9997ZM46.1852 34.5598L44.0247 35.9997L46.1852 37.4397V34.5611V34.5598ZM45.1629 32.1803L37.2732 26.9209V31.4992L41.7292 34.4694L45.1629 32.1803ZM30.2709 34.4694L34.7269 31.4992V26.9209L26.8372 32.1803L30.2709 34.4694ZM26.8372 39.8192L34.7269 45.0786V40.5003L30.2709 37.5301L26.8372 39.8192ZM25.8149 37.4397L27.9754 35.9997L25.8149 34.5598V37.4397ZM23.2686 32.1803C23.2685 31.9707 23.3202 31.7644 23.4191 31.5796C23.5179 31.3949 23.6608 31.2373 23.8351 31.121L35.2934 23.4821C35.5027 23.3426 35.7485 23.2681 36 23.2681C36.2515 23.2681 36.4974 23.3426 36.7066 23.4821L48.165 31.121C48.3393 31.2373 48.4822 31.3949 48.581 31.5796C48.6799 31.7644 48.7315 31.9707 48.7315 32.1803V39.8192C48.7315 40.0287 48.6799 40.2351 48.581 40.4198C48.4822 40.6046 48.3393 40.7621 48.165 40.8784L36.7066 48.5173C36.4974 48.6569 36.2515 48.7314 36 48.7314C35.7485 48.7314 35.5027 48.6569 35.2934 48.5173L23.8351 40.8784C23.6608 40.7621 23.5179 40.6046 23.4191 40.4198C23.3202 40.2351 23.2685 40.0287 23.2686 39.8192V32.1803Z" fill="black"/>
</svg>
