<svg width="72" height="72" viewBox="0 0 72 72" fill="none" xmlns="http://www.w3.org/2000/svg">
<path d="M0 0H72V72H0V0Z" fill="#E6CFF2"/>
<path d="M35.9998 27.088V44.9121H44.9119V27.088H35.9998ZM25.8147 24.5417H46.185C46.5227 24.5417 46.8465 24.6759 47.0853 24.9146C47.324 25.1534 47.4582 25.4772 47.4582 25.8149V46.1853C47.4582 46.5229 47.324 46.8468 47.0853 47.0855C46.8465 47.3243 46.5227 47.4584 46.185 47.4584H25.8147C25.477 47.4584 25.1532 47.3243 24.9144 47.0855C24.6756 46.8468 24.5415 46.5229 24.5415 46.1853V25.8149C24.5415 25.4772 24.6756 25.1534 24.9144 24.9146C25.1532 24.6759 25.477 24.5417 25.8147 24.5417Z" fill="black"/>
</svg>
