<svg width="72" height="72" viewBox="0 0 72 72" fill="none" xmlns="http://www.w3.org/2000/svg">
<path d="M0 0H72V72H0V0Z" fill="#EBFA9E"/>
<path d="M41.0288 23.7685L48.231 30.9707C48.4697 31.2095 48.6038 31.5332 48.6038 31.8708C48.6038 32.2084 48.4697 32.5322 48.231 32.7709L38.3272 42.6748L35.6281 43.5749L33.8266 45.3751C33.5878 45.6138 33.2641 45.7479 32.9265 45.7479C32.5889 45.7479 32.2651 45.6138 32.0264 45.3751L26.6244 39.9731C26.3857 39.7344 26.2516 39.4106 26.2516 39.073C26.2516 38.7354 26.3857 38.4117 26.6244 38.1729L28.4246 36.3727L29.3247 33.6723L39.2286 23.7685C39.4673 23.5298 39.7911 23.3958 40.1287 23.3958C40.4663 23.3958 40.79 23.5298 41.0288 23.7685ZM41.9289 28.2704L33.8266 36.3727L35.6268 38.1729L43.7291 30.0706L41.9289 28.2704ZM26.1737 42.2241L29.7754 45.8258L27.9752 47.626L22.5732 45.8258L26.1737 42.2241Z" fill="black"/>
</svg>
